<svg version="1.2" xmlns="http://www.w3.org/2000/svg" viewBox="0 0 400 400" width="40" height="40">
	<title>logo</title>
	<style>
		.s0 { fill: #ff8700;stroke: #000000;stroke-miterlimit:100;stroke-width: 0 } 
	</style>
	<path id="Shape 2" fill-rule="evenodd" class="s0" d="m21 61c0-22.1 17.9-40 40-40h278c22.1 0 40 17.9 40 40v278c0 22.1-17.9 40-40 40h-278c-22.1 0-40-17.9-40-40zm307 139c0-70.8-57.2-128-128-128-70.8 0-128 57.2-128 128 0 70.8 57.2 128 128 128 15.2 0 29.8-2.6 43.4-7.5l43.1 24.4-0.5-50.1c25.8-23.4 42-57.2 42-94.8z"/>
	<g id="Folder 2">
		<g id="Folder 1">
			<path id="Shape 4" class="s0" d="m258 235c-26.5 0-48-21.5-48-48 0-26.5 21.5-48 48-48 26.5 0 48 21.5 48 48 0 26.5-21.5 48-48 48z"/>
			<path id="Shape 5" class="s0" d="m133 178h133v107h-133z"/>
			<path id="Shape 4 copy" class="s0" d="m143 235c-26.5 0-48-21.5-48-48 0-26.5 21.5-48 48-48 26.5 0 48 21.5 48 48 0 26.5-21.5 48-48 48z"/>
			<path id="Shape 4 copy 2" class="s0" d="m200 211c-26.5 0-48-21.5-48-48 0-26.5 21.5-48 48-48 26.5 0 48 21.5 48 48 0 26.5-21.5 48-48 48z"/>
		</g>
	</g>
</svg>